<svg xmlns="http://www.w3.org/2000/svg" viewBox="0 0 24 24" fill="currentColor" aria-hidden="true"><path d="M14.5 2.5 21.5 9.5a4.2 4.2 0 0 1 0 6l-6 6a4.2 4.2 0 0 1-6 0l-7-7a4.2 4.2 0 0 1 0-6l6-6a4.2 4.2 0 0 1 6 0zm-6.5 1.6-0.5.5 6.5 6.5L20 6.1a2.2 2.2 0 0 0 0-3.1l-.5-.5a2.2 2.2 0 0 0-3.1 0L10.1 5.9a2.2 2.2 0 0 0 0 3.1l.5.5 6.5-6.5a2.2 2.2 0 0 0-3.1 0zm-3.4 3.4a2.2 2.2 0 0 0-3.1 0l-.5.5a2.2 2.2 0 0 0 0 3.1l6.5 6.5 6.5-6.5a2.2 2.2 0 0 0 0-3.1l-.5-.5a2.2 2.2 0 0 0-3.1 0L8.5 12.5 6.1 10.1a2.2 2.2 0 0 0-3.1 0l-.5.5a2.2 2.2 0 0 0 0 3.1l7 7a4.2 4.2 0 0 0 6 0l6-6a4.2 4.2 0 0 0 0-6l-7-7a4.2 4.2 0 0 0-6 0z"/></svg>
